{"glyphs":{"\u0000":{"ha":347,"x_min":0,"x_max":0,"o":""},"\r":{"ha":347,"x_min":0,"x_max":0,"o":""}," ":{"ha":347,"x_min":0,"x_max":0,"o":""},"A":{"ha":792,"x_min":69,"x_max":722,"o":"m 658 935 q 396 939 658 939 l 133 939 l 132 906 q 114 541 125 806 q 101 264 103 276 q 100 227 101 247 q 98 194 99 207 q 97 178 97 181 l 97 163 l 693 163 l 693 171 q 692 188 693 172 q 690 233 692 203 q 688 288 689 264 q 676 542 683 379 q 665 779 669 704 q 658 935 658 915 m 107 942 l 108 963 l 682 963 l 685 935 q 692 786 686 919 q 721 172 717 232 l 722 135 l 69 135 l 69 143 q 82 411 69 154 q 100 796 97 715 q 107 942 106 928 z "},"B":{"ha":792,"x_min":69,"x_max":722,"o":"m 693 890 q 643 942 676 908 l 604 942 q 329 939 563 939 l 94 939 l 94 161 q 370 165 186 163 q 646 167 554 167 l 693 214 l 693 510 l 672 531 q 651 554 651 551 q 672 576 651 556 l 693 597 l 693 890 m 319 964 q 447 964 381 964 q 560 965 514 964 q 613 965 606 965 l 657 967 l 719 900 q 721 745 719 849 q 722 590 722 642 q 703 570 715 583 q 686 551 692 557 q 705 535 693 546 q 722 518 717 524 l 722 204 q 657 138 678 160 l 363 136 l 69 133 l 69 963 l 319 964 z "},"C":{"ha":792,"x_min":69,"x_max":722,"o":"m 696 872 l 696 940 l 397 942 l 97 942 l 97 167 l 697 167 l 697 304 l 661 304 l 661 804 l 697 804 l 696 872 m 71 553 l 69 967 l 722 967 q 721 872 722 935 q 719 778 719 810 l 706 776 l 690 776 l 690 329 l 722 329 l 722 138 q 397 139 614 139 q 71 140 179 139 l 71 553 z "},"D":{"ha":792,"x_min":69,"x_max":722,"o":"m 693 894 l 646 942 l 372 942 q 97 939 100 942 q 94 551 94 936 l 94 167 l 650 167 q 693 211 665 181 l 693 894 m 69 138 l 69 967 l 657 967 l 722 901 l 722 203 q 657 138 689 171 l 69 138 z "},"E":{"ha":792,"x_min":69,"x_max":722,"o":"m 699 951 q 394 958 694 958 l 93 958 l 93 178 l 697 178 l 697 269 l 665 269 l 667 413 l 667 554 l 682 554 l 697 556 l 697 615 q 681 617 692 617 q 667 618 671 617 l 667 742 l 665 865 l 681 865 q 699 872 696 865 q 700 911 700 876 q 699 951 700 947 m 69 153 l 69 982 l 722 982 l 722 842 l 689 842 l 689 640 l 722 640 l 722 532 l 689 532 l 689 413 q 691 307 689 324 q 707 290 693 290 l 713 290 l 722 290 l 722 153 l 69 153 z "},"F":{"ha":794,"x_min":69,"x_max":725,"o":"m 701 829 l 701 958 l 93 958 l 93 178 l 665 178 l 667 339 l 667 501 q 684 503 672 503 q 701 504 696 503 l 701 564 l 685 564 l 667 565 l 667 828 l 685 829 l 701 829 m 69 565 q 72 979 69 976 q 399 982 75 982 l 724 981 l 725 906 l 725 871 q 724 818 725 824 q 719 808 722 810 q 706 806 717 806 l 689 806 l 689 588 l 707 588 l 724 586 l 725 546 l 725 526 q 724 492 725 497 q 719 481 722 483 q 706 479 717 479 l 689 479 l 689 153 l 69 153 l 69 565 z "},"G":{"ha":793,"x_min":69,"x_max":724,"o":"m 667 546 l 667 961 l 93 961 l 93 175 l 653 175 l 676 197 l 699 221 l 699 546 l 667 546 m 69 150 l 69 982 l 692 982 l 692 569 l 724 569 l 724 213 l 661 150 l 69 150 z "},"H":{"ha":793,"x_min":69,"x_max":724,"o":"m 703 571 l 701 964 l 651 964 l 624 964 q 588 960 594 964 q 579 942 581 956 l 578 925 l 219 925 q 218 942 219 931 q 217 960 217 954 q 155 961 196 961 q 93 963 114 961 l 93 175 l 219 175 l 219 207 l 386 207 q 565 210 551 207 q 574 210 571 213 q 577 206 576 208 q 578 194 578 204 l 578 178 l 703 178 l 703 571 m 582 983 q 664 985 594 985 l 694 985 q 724 979 724 985 l 724 782 q 722 156 724 157 q 639 154 721 154 l 556 153 l 554 169 l 551 185 l 244 185 l 244 168 l 243 150 l 69 150 l 69 982 l 243 982 l 243 950 l 554 950 l 554 961 q 559 978 554 974 q 582 983 564 982 z "},"I":{"ha":721,"x_min":69,"x_max":651,"o":"m 629 571 l 629 964 l 361 965 l 93 965 l 93 178 l 631 178 l 629 571 m 69 154 l 69 986 l 651 986 l 651 154 l 69 154 z "},"J":{"ha":788,"x_min":69,"x_max":718,"o":"m 693 160 l 693 935 l 129 935 l 129 304 l 113 303 l 96 303 l 94 231 l 94 160 l 693 160 m 101 329 l 101 960 l 718 960 l 718 135 l 69 135 l 69 329 l 101 329 z "},"K":{"ha":793,"x_min":69,"x_max":724,"o":"m 356 858 l 356 931 l 94 931 l 94 543 l 96 156 q 226 154 139 156 q 356 153 313 153 l 356 226 q 428 153 403 176 l 696 153 l 694 174 q 676 401 692 200 l 663 608 l 676 757 q 696 931 692 917 l 428 931 l 356 858 m 69 129 l 69 956 l 381 956 l 381 940 q 383 924 381 924 q 401 940 385 924 l 417 956 l 571 956 q 724 951 724 956 q 706 778 724 950 l 689 607 l 704 396 q 712 288 708 347 q 718 196 715 229 q 721 156 721 163 l 724 129 l 417 129 l 401 144 q 383 161 385 161 q 381 144 381 161 l 381 129 l 69 129 z "},"L":{"ha":796,"x_min":69,"x_max":726,"o":"m 667 272 l 667 965 l 382 965 q 96 963 99 965 q 93 569 93 960 l 93 178 l 703 178 q 701 224 703 193 q 700 269 700 254 q 683 271 694 269 q 667 272 672 272 m 71 981 q 382 986 72 986 l 690 986 l 690 292 l 707 292 q 723 286 719 292 q 726 253 726 281 l 726 215 l 725 156 l 71 156 l 69 567 q 71 981 69 978 z "},"M":{"ha":792,"x_min":69,"x_max":722,"o":"m 399 914 q 353 958 383 928 l 93 958 l 93 174 l 226 174 l 226 207 q 229 242 226 242 q 267 207 232 242 l 301 174 l 494 174 l 528 207 q 565 242 563 242 q 568 207 568 242 l 568 174 l 697 174 l 697 958 l 442 958 q 399 914 426 944 m 69 565 q 72 979 69 976 q 218 982 75 982 l 361 982 q 399 946 386 957 q 433 982 421 971 l 722 982 l 722 568 q 715 151 722 156 q 636 150 711 150 q 554 151 560 150 q 544 172 544 153 l 544 190 q 506 153 531 178 l 288 153 l 269 169 l 253 188 l 251 171 q 242 151 250 153 q 161 150 236 150 q 79 151 85 150 l 69 154 l 69 565 z "},"N":{"ha":793,"x_min":69,"x_max":724,"o":"m 453 899 l 418 935 l 94 935 l 94 547 l 96 158 l 197 157 l 299 157 l 299 192 q 301 228 299 228 q 340 192 304 228 l 375 157 l 694 157 l 694 935 l 493 935 l 493 899 q 490 864 493 864 q 453 899 488 864 m 69 132 l 69 960 l 432 960 l 465 926 l 465 960 l 724 960 l 724 132 l 361 132 l 344 149 q 326 163 328 164 q 324 146 324 160 l 324 132 l 69 132 z "},"O":{"ha":789,"x_min":69,"x_max":719,"o":"m 694 888 l 647 935 l 142 935 q 94 886 111 901 l 94 204 q 143 157 110 188 l 647 157 q 694 206 664 172 l 694 888 m 69 897 l 132 960 l 661 960 l 719 901 l 719 194 q 658 132 700 174 l 132 132 q 69 194 99 161 l 69 897 z "},"P":{"ha":792,"x_min":69,"x_max":722,"o":"m 697 508 l 697 963 l 93 963 l 93 178 l 665 178 l 667 342 l 667 506 q 682 507 671 506 q 697 508 693 508 m 69 615 l 69 986 l 722 986 l 722 483 l 689 483 l 689 158 l 654 156 l 610 156 q 347 157 453 156 l 75 158 l 72 200 q 69 615 69 247 z "},"Q":{"ha":800,"x_min":69,"x_max":731,"o":"m 663 201 l 663 938 l 381 938 q 97 936 99 938 q 94 419 94 933 q 96 167 94 169 q 392 161 99 161 q 685 163 685 161 q 674 183 685 164 l 663 201 m 69 136 l 69 963 l 688 963 l 688 210 l 704 183 q 717 160 708 175 q 731 136 726 144 l 69 136 z "},"R":{"ha":794,"x_min":69,"x_max":726,"o":"m 701 499 l 701 963 l 93 963 l 93 178 l 225 178 l 357 179 l 360 213 l 361 246 l 429 178 l 701 178 l 701 425 q 626 499 676 449 l 701 499 m 69 569 q 72 983 69 981 q 399 986 75 986 q 677 985 632 986 q 722 979 722 985 l 722 725 l 724 476 l 704 476 l 685 475 q 724 435 710 447 l 725 296 q 726 244 725 274 q 726 207 726 215 q 719 157 726 157 q 710 157 718 157 q 687 156 701 157 q 653 156 672 156 q 611 156 635 156 q 565 156 588 156 l 419 156 l 401 172 q 382 186 385 189 q 379 171 379 183 q 372 156 379 158 l 311 156 q 75 157 89 156 q 69 569 69 157 z "},"S":{"ha":789,"x_min":69,"x_max":719,"o":"m 693 692 l 693 924 l 94 924 l 94 461 l 129 425 q 165 388 165 389 q 129 385 165 385 l 94 385 l 94 153 l 693 153 l 693 615 l 658 651 q 622 689 622 688 q 658 692 622 692 l 693 692 m 69 446 l 69 953 l 394 951 l 719 951 l 719 665 q 702 664 714 664 q 685 663 690 664 l 718 629 l 719 378 l 719 126 q 394 125 611 125 q 69 124 178 125 l 71 268 l 71 411 l 86 413 l 101 415 q 69 446 92 426 z "},"T":{"ha":792,"x_min":69,"x_max":722,"o":"m 700 879 l 700 964 q 397 965 599 964 q 93 967 194 967 l 93 878 l 126 878 l 126 181 l 665 181 l 665 878 l 682 878 l 700 879 m 69 854 l 69 990 l 722 990 l 722 853 l 689 853 l 689 507 q 685 161 689 161 l 543 161 q 108 163 110 161 q 104 508 107 164 l 104 851 q 87 853 99 853 q 69 854 75 853 z "},"U":{"ha":792,"x_min":69,"x_max":722,"o":"m 214 896 l 214 928 l 94 928 l 94 543 l 96 157 l 394 157 l 693 156 l 693 428 q 690 814 693 689 l 689 928 l 576 928 l 576 896 l 214 896 m 69 128 l 69 956 l 242 956 l 242 940 q 247 922 242 924 q 394 919 253 919 q 543 922 538 919 q 549 940 549 924 l 549 956 l 717 956 l 719 792 q 722 378 722 611 l 722 128 l 69 128 z "},"V":{"ha":796,"x_min":69,"x_max":726,"o":"m 697 878 l 700 958 l 399 958 q 96 956 99 958 q 100 853 94 954 q 118 463 107 714 l 131 171 l 665 171 l 674 371 q 686 623 678 460 q 697 878 694 786 m 71 957 l 69 978 l 726 978 l 725 951 q 699 393 708 628 q 689 175 690 193 l 686 146 l 110 146 l 108 186 l 71 957 z "},"W":{"ha":793,"x_min":69,"x_max":724,"o":"m 243 903 l 231 928 l 97 928 l 100 892 q 107 743 101 879 q 128 286 124 360 q 131 232 129 263 q 133 186 132 201 q 133 168 133 171 l 133 156 l 369 156 l 382 181 q 397 206 394 206 q 411 181 399 206 l 424 156 l 658 156 l 660 175 q 671 396 660 176 q 683 672 676 510 q 692 869 690 835 l 694 928 l 564 928 l 551 903 q 536 878 539 878 q 521 903 533 878 l 508 928 l 285 928 l 272 903 q 257 878 260 878 q 243 903 256 878 m 397 150 q 392 139 396 147 q 386 128 389 131 l 247 128 q 126 128 144 128 q 108 135 108 129 q 108 147 108 136 q 106 176 107 157 q 106 211 106 196 q 88 569 103 238 q 72 928 74 901 l 69 956 l 246 956 l 251 944 l 258 933 q 268 956 263 947 l 524 956 l 536 935 q 549 956 544 943 l 724 956 l 721 903 q 709 656 717 819 q 696 369 701 493 q 689 222 690 246 l 685 129 l 547 128 l 408 128 q 402 139 406 131 q 397 150 399 147 z "},"X":{"ha":792,"x_min":69,"x_max":722,"o":"m 361 900 l 338 932 l 218 932 q 96 929 99 932 q 94 771 94 928 l 94 615 l 122 579 q 149 540 149 547 q 121 501 149 536 l 94 468 l 94 317 q 97 160 94 165 q 158 157 100 157 l 219 157 l 339 157 l 365 192 q 396 225 390 225 q 425 190 400 225 l 451 156 l 531 157 q 651 160 617 160 l 693 160 l 693 475 l 667 508 q 640 544 640 543 l 667 582 l 693 617 l 693 932 l 572 932 l 451 931 l 424 894 q 394 861 397 861 q 390 864 393 861 q 361 900 386 869 m 69 604 l 69 960 l 350 960 l 371 932 q 394 903 392 903 q 419 932 396 903 l 442 960 l 722 960 l 722 608 l 697 578 q 675 544 675 551 q 700 510 675 542 l 722 481 l 722 131 l 683 131 q 543 129 600 131 l 442 126 l 419 156 q 394 181 400 181 q 367 150 389 181 l 350 128 l 69 128 l 69 478 l 94 510 q 115 543 115 539 q 92 576 115 546 l 69 604 z "},"Y":{"ha":793,"x_min":69,"x_max":724,"o":"m 383 933 l 371 960 l 232 961 l 93 961 l 93 525 l 126 471 l 126 175 l 667 175 l 667 467 q 683 493 672 475 q 699 521 693 511 l 699 961 l 425 961 q 397 907 406 925 l 383 933 m 397 961 q 408 982 406 975 l 724 982 l 724 517 l 707 490 l 692 463 l 692 150 q 399 151 594 150 q 106 153 204 153 l 104 308 l 104 463 q 87 491 99 472 q 69 519 75 510 l 69 982 l 385 982 l 397 961 z "},"Z":{"ha":793,"x_min":69,"x_max":724,"o":"m 694 475 l 694 935 l 94 935 l 94 699 q 120 697 103 697 q 147 696 138 697 q 94 603 131 664 l 94 157 l 694 157 l 694 379 l 668 379 q 642 381 642 379 q 668 429 642 382 l 694 475 m 69 672 l 69 960 q 395 958 178 958 q 721 957 613 958 q 722 716 722 876 q 724 475 722 556 q 689 408 711 453 q 705 407 694 408 q 721 406 715 406 l 721 131 l 396 129 l 69 129 l 69 613 l 85 640 q 99 669 100 668 q 83 672 96 672 l 69 672 z "},"a":{"ha":563,"x_min":69,"x_max":493,"o":"m 457 467 l 457 663 l 93 663 l 93 621 q 100 578 93 578 q 106 511 106 578 q 100 444 106 444 q 93 310 93 444 l 93 175 l 282 175 l 471 176 l 472 221 l 472 249 q 465 268 472 267 q 458 294 460 269 q 457 467 457 319 m 493 229 l 493 201 q 493 184 493 190 q 492 174 493 178 q 490 167 492 169 q 488 162 489 164 q 482 156 486 160 q 475 150 478 153 q 272 151 407 150 q 71 153 138 153 l 71 308 l 71 407 q 78 467 71 465 q 86 511 86 468 q 78 556 86 554 q 71 566 72 557 q 69 619 69 575 q 72 685 69 682 q 269 688 75 688 q 436 686 408 688 q 472 678 464 685 l 482 669 l 482 481 q 488 292 482 292 q 493 229 493 292 z "},"b":{"ha":563,"x_min":69,"x_max":493,"o":"m 457 658 l 457 821 l 93 821 l 93 178 l 469 178 l 469 336 q 463 494 469 493 q 457 658 457 496 m 69 154 l 69 840 l 482 840 l 482 679 q 488 517 482 518 q 493 425 493 515 l 493 335 l 492 156 l 281 156 l 69 154 z "},"c":{"ha":561,"x_min":69,"x_max":492,"o":"m 468 618 l 468 664 l 93 664 l 93 178 l 468 178 l 468 224 q 463 269 468 269 q 456 421 456 269 q 463 572 456 572 q 468 618 468 572 m 69 153 l 69 689 l 492 689 l 492 618 q 486 547 492 547 q 481 421 481 547 q 486 294 481 294 q 492 224 492 294 l 492 153 l 69 153 z "},"d":{"ha":561,"x_min":69,"x_max":492,"o":"m 101 650 q 97 492 101 531 q 93 333 93 453 l 93 178 l 468 178 l 468 814 l 288 814 q 104 811 107 814 q 101 650 101 808 m 82 676 l 82 838 l 492 838 l 492 153 l 69 153 l 69 332 q 75 513 69 511 q 82 676 82 514 z "},"e":{"ha":561,"x_min":69,"x_max":492,"o":"m 467 522 l 467 667 l 282 668 q 96 665 99 668 q 93 481 93 663 q 97 181 93 183 q 153 179 119 179 q 211 180 167 179 q 283 181 256 181 l 468 182 l 468 342 l 456 342 q 446 344 447 342 q 444 360 444 347 q 446 375 444 372 q 456 378 447 378 l 468 378 l 467 522 m 81 681 l 92 693 l 282 693 q 447 692 418 693 q 483 683 475 690 l 492 675 l 492 175 l 483 167 q 447 158 476 160 q 282 156 417 157 l 90 153 l 81 165 l 69 175 l 69 669 l 81 681 z "},"f":{"ha":563,"x_min":69,"x_max":493,"o":"m 472 842 l 472 926 l 293 926 q 111 921 117 926 q 106 793 106 915 q 100 667 106 668 q 93 619 93 664 q 100 575 93 575 q 106 378 106 575 l 106 181 l 456 181 l 456 376 q 457 548 456 522 q 464 575 458 574 q 472 621 472 576 q 464 668 472 663 q 456 713 456 674 q 464 756 456 754 q 471 769 469 757 q 472 842 472 781 m 99 940 l 111 950 l 300 949 l 490 949 l 492 840 l 492 786 q 486 733 492 733 q 481 714 481 733 q 486 689 481 693 q 493 643 493 686 l 493 603 q 486 551 492 551 q 481 354 481 551 l 481 157 l 86 157 l 86 354 q 85 526 86 500 q 78 553 83 551 q 71 563 72 554 q 69 619 69 572 q 78 689 69 685 q 85 708 83 692 q 86 811 86 725 l 86 929 l 99 940 z "},"g":{"ha":561,"x_min":69,"x_max":492,"o":"m 468 -144 l 468 600 l 93 600 l 93 532 l 93 386 q 100 176 93 181 q 106 57 106 172 q 100 -60 106 -60 q 93 -103 93 -60 l 93 -144 l 468 -144 m 69 386 l 69 619 l 492 619 l 492 -169 l 69 -169 l 69 -103 q 75 -36 69 -36 q 82 58 82 -36 q 75 153 82 153 q 69 386 69 153 z "},"h":{"ha":561,"x_min":69,"x_max":492,"o":"m 186 835 q 140 842 186 842 l 93 842 l 93 181 l 140 181 q 186 188 186 181 q 281 193 186 193 q 375 188 375 193 q 422 181 375 181 l 468 181 l 468 829 l 328 829 q 186 835 186 829 m 69 157 l 69 865 l 138 865 q 211 857 204 865 q 278 850 218 850 l 356 850 l 492 850 l 492 157 l 422 157 q 351 163 351 157 q 281 169 351 169 q 210 163 210 169 q 140 157 210 157 l 69 157 z "},"i":{"ha":533,"x_min":69,"x_max":464,"o":"m 440 181 l 440 596 l 89 596 l 89 181 l 440 181 m 440 632 l 440 842 l 267 842 q 92 836 93 842 q 90 732 90 833 l 92 635 q 266 633 150 633 q 440 632 382 633 m 69 157 l 69 865 l 464 865 l 464 157 l 69 157 z "},"j":{"ha":550,"x_min":69,"x_max":481,"o":"m 457 500 l 456 547 l 106 547 l 106 354 q 100 161 106 161 q 93 94 93 161 l 93 28 l 454 28 l 457 240 q 458 326 457 271 q 458 404 458 382 q 458 465 458 432 q 457 500 457 497 m 456 583 l 456 793 l 106 793 q 107 690 106 758 q 108 586 108 621 q 281 585 165 586 q 456 583 397 583 m 86 501 l 86 817 l 481 817 l 481 8 l 278 8 q 72 14 74 8 q 69 101 69 22 q 71 171 69 160 q 78 183 72 182 q 85 226 83 185 q 86 501 86 267 z "},"k":{"ha":563,"x_min":69,"x_max":493,"o":"m 186 833 q 180 840 186 839 q 140 840 174 840 l 93 840 l 93 178 q 131 174 126 174 q 139 174 133 174 q 149 175 144 175 l 185 176 l 186 190 l 189 203 l 217 175 l 340 175 q 467 178 465 175 l 467 192 q 464 325 467 211 q 458 547 458 475 q 463 760 458 635 l 465 836 l 440 836 q 213 826 388 836 q 186 833 186 825 m 69 507 q 72 863 69 860 q 140 865 75 865 q 210 858 207 865 q 243 853 211 853 q 386 858 290 853 q 476 861 464 861 l 486 861 q 488 822 488 844 q 487 783 488 813 q 486 735 486 753 q 482 525 482 606 q 488 314 482 424 q 490 244 489 282 q 492 185 492 206 q 493 164 493 165 l 493 154 l 69 154 l 69 507 z "},"l":{"ha":539,"x_min":69,"x_max":469,"o":"m 444 508 l 444 840 l 93 840 q 94 508 94 729 q 96 176 94 288 l 443 176 l 444 508 m 72 863 q 271 864 74 864 l 467 863 q 468 508 467 744 q 469 154 469 272 l 69 154 l 69 507 q 72 863 69 860 z "},"m":{"ha":563,"x_min":69,"x_max":493,"o":"m 226 656 q 186 661 186 656 q 140 667 186 667 l 93 667 q 94 422 94 585 q 96 176 94 258 l 128 175 q 155 175 150 174 q 161 182 160 176 q 169 189 163 188 q 208 190 175 190 q 257 182 256 190 q 279 174 258 174 q 307 182 299 174 q 356 190 314 190 q 406 182 399 190 q 436 175 411 175 q 464 178 458 175 q 468 301 468 182 l 468 417 l 467 653 l 383 654 l 340 654 q 292 649 299 654 q 275 649 285 643 q 226 656 264 656 m 69 419 q 72 689 69 686 q 142 692 75 692 q 199 690 189 692 q 210 683 208 689 q 230 676 211 678 q 353 675 249 675 l 493 675 l 493 154 l 438 154 q 381 160 381 154 q 356 167 381 167 q 332 160 332 167 q 282 154 332 154 q 231 160 231 154 q 208 167 231 167 q 186 160 186 167 q 128 154 186 154 l 69 154 l 69 419 z "},"n":{"ha":564,"x_min":69,"x_max":494,"o":"m 188 665 q 136 672 185 672 q 96 667 97 672 q 94 421 94 664 l 96 181 l 131 179 l 149 179 q 190 189 190 179 q 282 194 190 194 q 363 193 349 194 q 382 186 376 192 q 406 179 389 179 l 431 179 l 471 181 l 471 657 l 331 658 q 188 665 189 660 m 69 424 q 72 693 69 690 q 140 696 75 696 q 211 688 207 696 q 233 681 214 682 q 354 679 253 679 q 494 674 494 679 l 494 415 l 493 160 l 425 160 q 399 159 414 160 q 381 158 385 158 q 356 164 356 158 q 281 171 356 171 q 213 164 215 171 q 140 158 211 158 l 69 158 l 69 424 z "},"o":{"ha":563,"x_min":69,"x_max":493,"o":"m 469 182 q 468 426 469 264 q 467 669 467 589 l 282 671 q 96 667 97 671 q 93 458 93 661 q 96 183 93 186 q 236 179 100 179 q 469 182 456 179 m 69 679 q 76 683 72 681 q 82 688 81 686 q 87 690 83 689 q 92 692 90 692 q 100 694 94 693 q 110 694 106 694 q 124 695 115 694 q 142 696 133 696 q 167 696 151 696 l 281 696 l 472 696 l 482 683 l 493 672 l 493 176 q 476 158 482 165 l 282 158 q 112 160 138 158 q 79 167 86 161 l 69 175 l 69 679 z "},"p":{"ha":563,"x_min":69,"x_max":493,"o":"m 469 483 l 469 671 l 93 671 l 93 -11 l 461 -11 l 461 142 q 465 296 461 296 q 469 483 469 296 m 72 693 q 283 694 74 694 l 492 693 l 493 485 l 493 381 q 488 274 493 278 q 482 118 482 271 l 482 -36 l 69 -36 l 69 326 q 72 693 69 690 z "},"q":{"ha":565,"x_min":69,"x_max":496,"o":"m 471 667 q 282 671 469 671 l 93 671 l 93 588 q 104 296 93 296 q 110 142 110 296 l 110 -11 l 476 -11 l 474 325 l 471 667 m 72 693 q 282 696 75 696 q 492 690 490 696 l 494 325 l 496 -36 l 86 -36 l 86 119 q 81 275 86 275 q 72 406 74 275 q 69 611 69 489 q 72 693 69 692 z "},"r":{"ha":563,"x_min":69,"x_max":493,"o":"m 93 182 q 283 179 111 179 l 456 181 l 456 315 q 463 449 457 449 q 468 504 468 449 l 468 560 l 467 669 l 360 671 l 253 671 l 242 658 q 222 658 222 638 l 222 671 l 93 671 l 93 182 m 69 424 q 72 693 69 690 q 274 696 75 696 l 472 696 l 482 683 l 493 672 l 493 549 q 488 425 493 425 q 482 292 482 425 l 482 158 l 69 158 l 69 424 z "},"s":{"ha":561,"x_min":69,"x_max":492,"o":"m 468 503 l 468 664 l 93 664 l 93 372 l 111 356 l 128 338 l 93 338 l 93 178 l 468 178 l 468 468 q 435 503 457 481 l 468 503 m 69 153 l 69 689 l 492 689 l 492 153 l 69 153 z "},"t":{"ha":561,"x_min":69,"x_max":492,"o":"m 456 733 l 456 821 l 106 821 l 106 733 q 100 644 106 644 q 93 575 93 644 q 100 507 93 507 q 106 328 106 507 l 106 149 l 456 149 l 456 328 q 463 507 456 507 q 468 575 468 507 q 463 644 468 644 q 456 733 456 644 m 82 757 l 82 846 l 481 846 l 481 757 q 486 668 481 668 q 492 575 492 668 q 486 483 492 483 q 481 307 481 483 q 474 128 481 129 l 465 128 q 442 127 457 128 q 411 126 428 126 q 349 127 394 126 q 274 128 303 128 l 82 129 l 82 306 q 75 483 82 483 q 69 575 69 483 q 75 668 69 668 q 82 757 82 668 z "},"u":{"ha":561,"x_min":69,"x_max":492,"o":"m 283 653 q 174 658 174 653 q 133 664 174 664 l 93 664 l 93 178 l 468 178 l 468 664 l 429 664 q 392 658 392 664 q 283 653 392 653 m 69 153 l 69 689 l 132 689 q 197 682 194 689 q 283 676 199 676 q 367 682 367 676 q 429 689 367 689 l 492 689 l 492 153 l 69 153 z "},"v":{"ha":561,"x_min":69,"x_max":492,"o":"m 464 572 l 467 664 l 281 664 q 101 661 108 664 q 94 656 96 658 q 110 226 94 517 l 113 178 l 449 178 l 451 231 q 464 572 461 474 m 69 686 q 281 688 71 688 l 492 686 l 490 658 q 472 158 476 171 q 278 153 471 153 l 88 153 l 88 175 q 85 248 88 185 q 78 423 82 311 q 71 601 74 535 q 69 676 69 633 l 69 686 z "},"w":{"ha":564,"x_min":69,"x_max":494,"o":"m 94 646 q 103 420 94 638 q 111 194 111 203 l 111 178 l 163 178 q 240 179 225 178 l 267 182 l 272 200 q 281 218 278 218 q 289 200 283 218 l 294 183 q 372 182 321 183 q 449 181 424 181 l 450 214 q 460 421 456 290 q 467 631 465 607 l 469 668 l 418 668 l 414 668 q 369 667 376 668 q 361 656 363 665 q 361 653 361 654 q 360 649 361 651 q 358 643 360 646 q 356 638 357 640 l 351 626 q 344 647 350 633 q 338 667 339 660 l 281 668 l 225 668 l 218 647 l 210 626 l 203 647 l 194 668 l 94 668 l 94 646 m 86 199 q 72 610 86 221 l 69 693 l 494 693 l 492 650 q 482 422 489 615 q 475 219 475 229 l 472 158 l 283 156 q 160 154 228 154 q 90 158 92 154 q 86 199 86 167 z "},"x":{"ha":561,"x_min":69,"x_max":492,"o":"m 272 663 q 179 668 265 668 l 93 668 l 93 551 q 100 431 93 436 q 100 418 107 425 q 93 297 93 411 l 93 181 l 181 181 q 275 188 265 181 q 288 188 282 194 q 379 181 293 181 l 468 181 l 468 294 q 463 418 468 408 q 463 431 456 426 q 468 551 468 435 l 468 668 l 382 668 q 289 663 299 668 q 272 663 279 658 m 69 157 l 69 693 l 492 693 l 492 157 l 69 157 z "},"y":{"ha":560,"x_min":69,"x_max":490,"o":"m 274 642 l 268 667 l 182 668 l 142 668 q 96 664 97 668 l 96 649 q 99 521 96 632 q 104 306 104 349 q 99 133 104 250 q 96 49 96 61 l 96 39 q 274 36 99 36 l 450 36 l 450 50 q 451 80 450 53 q 454 156 453 107 q 457 251 456 206 q 461 404 458 289 q 465 554 464 519 l 468 668 l 382 668 l 296 667 l 290 642 q 282 615 285 615 q 274 642 279 615 m 71 690 q 282 693 74 693 l 490 693 l 490 642 q 476 122 490 629 l 474 17 l 69 17 l 71 46 q 82 325 82 260 q 81 358 82 336 q 81 390 81 379 q 78 490 81 418 q 74 588 75 561 q 72 638 74 608 q 71 675 71 668 q 71 690 71 682 z "},"z":{"ha":561,"x_min":69,"x_max":492,"o":"m 468 376 l 468 668 l 93 668 l 93 507 l 108 507 q 122 504 122 507 q 108 488 122 501 l 93 474 l 93 181 l 468 181 l 468 342 l 435 342 q 468 376 446 354 m 69 157 l 69 693 l 492 693 l 492 157 l 69 157 z "}," ":{"ha":347,"x_min":0,"x_max":0,"o":""}}}
